<?xml version="1.0" encoding="UTF-8" standalone="no"?>
<!DOCTYPE svg PUBLIC "-//W3C//DTD SVG 1.1//EN"
 "http://www.w3.org/Graphics/SVG/1.1/DTD/svg11.dtd">
<!-- Generated by graphviz version 2.50.0 (0)
 -->
<!-- Title: g Pages: 1 -->
<svg width="1317pt" height="773pt"
 viewBox="0.00 0.00 1317.00 772.94" xmlns="http://www.w3.org/2000/svg" xmlns:xlink="http://www.w3.org/1999/xlink">
<g id="graph0" class="graph" transform="scale(1 1) rotate(0) translate(4 768.94)">
<title>g</title>
<polygon fill="white" stroke="transparent" points="-4,4 -4,-768.94 1313,-768.94 1313,4 -4,4"/>
<!-- Plan GUI -->
<g id="node1" class="node">
<title>Plan GUI</title>
<polygon fill="#ededed" stroke="blue" points="135.5,-692.5 135.5,-761.5 204.5,-761.5 204.5,-692.5 135.5,-692.5"/>
<text text-anchor="middle" x="170" y="-746.3" font-family="Times New Roman,serif" font-size="14.00">Plan GUI</text>
<polyline fill="none" stroke="blue" points="135.5,-738.5 204.5,-738.5 "/>
<text text-anchor="middle" x="147" y="-723.3" font-family="Times New Roman,serif" font-size="14.00">0</text>
<polyline fill="none" stroke="blue" points="158.5,-715.5 158.5,-738.5 "/>
<text text-anchor="middle" x="170" y="-723.3" font-family="Times New Roman,serif" font-size="14.00">2</text>
<polyline fill="none" stroke="blue" points="181.5,-715.5 181.5,-738.5 "/>
<text text-anchor="middle" x="193" y="-723.3" font-family="Times New Roman,serif" font-size="14.00">2</text>
<polyline fill="none" stroke="blue" points="135.5,-715.5 204.5,-715.5 "/>
<text text-anchor="middle" x="170" y="-700.3" font-family="Times New Roman,serif" font-size="14.00">All</text>
</g>
<!-- Make GUI -->
<g id="node2" class="node">
<title>Make GUI</title>
<polygon fill="#ededed" stroke="blue" points="645,-586.5 645,-655.5 721,-655.5 721,-586.5 645,-586.5"/>
<text text-anchor="middle" x="683" y="-640.3" font-family="Times New Roman,serif" font-size="14.00">Make GUI</text>
<polyline fill="none" stroke="blue" points="645,-632.5 721,-632.5 "/>
<text text-anchor="middle" x="657.5" y="-617.3" font-family="Times New Roman,serif" font-size="14.00">2</text>
<polyline fill="none" stroke="blue" points="670,-609.5 670,-632.5 "/>
<text text-anchor="middle" x="682.5" y="-617.3" font-family="Times New Roman,serif" font-size="14.00">7</text>
<polyline fill="none" stroke="blue" points="695,-609.5 695,-632.5 "/>
<text text-anchor="middle" x="708" y="-617.3" font-family="Times New Roman,serif" font-size="14.00">9</text>
<polyline fill="none" stroke="blue" points="645,-609.5 721,-609.5 "/>
<text text-anchor="middle" x="683" y="-594.3" font-family="Times New Roman,serif" font-size="14.00">TBD</text>
</g>
<!-- Plan GUI&#45;&gt;Make GUI -->
<g id="edge2" class="edge">
<title>Plan GUI&#45;&gt;Make GUI</title>
<path fill="none" stroke="black" d="M204.54,-736.67C277.87,-755.87 456.24,-791.87 585,-730 614.62,-715.77 639.12,-687.98 656.09,-664.02"/>
<polygon fill="black" stroke="black" points="659.01,-665.96 661.78,-655.73 653.23,-662 659.01,-665.96"/>
</g>
<!-- Integrate GUI/SQL -->
<g id="node25" class="node">
<title>Integrate GUI/SQL</title>
<polygon fill="#ededed" stroke="blue" points="939,-403.5 939,-472.5 1061,-472.5 1061,-403.5 939,-403.5"/>
<text text-anchor="middle" x="1000" y="-457.3" font-family="Times New Roman,serif" font-size="14.00">Integrate GUI/SQL</text>
<polyline fill="none" stroke="blue" points="939,-449.5 1061,-449.5 "/>
<text text-anchor="middle" x="960.5" y="-434.3" font-family="Times New Roman,serif" font-size="14.00">14</text>
<polyline fill="none" stroke="blue" points="982,-426.5 982,-449.5 "/>
<text text-anchor="middle" x="1000" y="-434.3" font-family="Times New Roman,serif" font-size="14.00">7</text>
<polyline fill="none" stroke="blue" points="1018,-426.5 1018,-449.5 "/>
<text text-anchor="middle" x="1039.5" y="-434.3" font-family="Times New Roman,serif" font-size="14.00">21</text>
<polyline fill="none" stroke="blue" points="939,-426.5 1061,-426.5 "/>
<text text-anchor="middle" x="1000" y="-411.3" font-family="Times New Roman,serif" font-size="14.00">TBD</text>
</g>
<!-- Make GUI&#45;&gt;Integrate GUI/SQL -->
<g id="edge38" class="edge">
<title>Make GUI&#45;&gt;Integrate GUI/SQL</title>
<path fill="none" stroke="black" d="M721.06,-599.47C772.47,-569.6 866.36,-515.06 930.67,-477.7"/>
<polygon fill="black" stroke="black" points="932.65,-480.6 939.54,-472.55 929.13,-474.54 932.65,-480.6"/>
</g>
<!-- Mail DDL -->
<g id="node3" class="node">
<title>Mail DDL</title>
<polygon fill="#ededed" stroke="blue" points="133,-573.5 133,-642.5 207,-642.5 207,-573.5 133,-573.5"/>
<text text-anchor="middle" x="170" y="-627.3" font-family="Times New Roman,serif" font-size="14.00">Mail DDL</text>
<polyline fill="none" stroke="blue" points="133,-619.5 207,-619.5 "/>
<text text-anchor="middle" x="145" y="-604.3" font-family="Times New Roman,serif" font-size="14.00">0</text>
<polyline fill="none" stroke="blue" points="157,-596.5 157,-619.5 "/>
<text text-anchor="middle" x="169.5" y="-604.3" font-family="Times New Roman,serif" font-size="14.00">2</text>
<polyline fill="none" stroke="blue" points="182,-596.5 182,-619.5 "/>
<text text-anchor="middle" x="194.5" y="-604.3" font-family="Times New Roman,serif" font-size="14.00">2</text>
<polyline fill="none" stroke="blue" points="133,-596.5 207,-596.5 "/>
<text text-anchor="middle" x="170" y="-581.3" font-family="Times New Roman,serif" font-size="14.00">Reuben</text>
</g>
<!-- MailBoxes DDL -->
<g id="node4" class="node">
<title>MailBoxes DDL</title>
<polygon fill="#ededed" stroke="blue" points="284,-573.5 284,-642.5 392,-642.5 392,-573.5 284,-573.5"/>
<text text-anchor="middle" x="338" y="-627.3" font-family="Times New Roman,serif" font-size="14.00">MailBoxes DDL</text>
<polyline fill="none" stroke="blue" points="284,-619.5 392,-619.5 "/>
<text text-anchor="middle" x="302" y="-604.3" font-family="Times New Roman,serif" font-size="14.00">2</text>
<polyline fill="none" stroke="blue" points="320,-596.5 320,-619.5 "/>
<text text-anchor="middle" x="338" y="-604.3" font-family="Times New Roman,serif" font-size="14.00">1</text>
<polyline fill="none" stroke="blue" points="356,-596.5 356,-619.5 "/>
<text text-anchor="middle" x="374" y="-604.3" font-family="Times New Roman,serif" font-size="14.00">3</text>
<polyline fill="none" stroke="blue" points="284,-596.5 392,-596.5 "/>
<text text-anchor="middle" x="338" y="-581.3" font-family="Times New Roman,serif" font-size="14.00">Reuben</text>
</g>
<!-- Mail DDL&#45;&gt;MailBoxes DDL -->
<g id="edge4" class="edge">
<title>Mail DDL&#45;&gt;MailBoxes DDL</title>
<path fill="none" stroke="black" d="M207.02,-608C226.45,-608 251.01,-608 273.53,-608"/>
<polygon fill="black" stroke="black" points="273.71,-611.5 283.71,-608 273.71,-604.5 273.71,-611.5"/>
</g>
<!-- Mail DML -->
<g id="node13" class="node">
<title>Mail DML</title>
<polygon fill="#ededed" stroke="blue" points="299.5,-661.5 299.5,-730.5 376.5,-730.5 376.5,-661.5 299.5,-661.5"/>
<text text-anchor="middle" x="338" y="-715.3" font-family="Times New Roman,serif" font-size="14.00">Mail DML</text>
<polyline fill="none" stroke="blue" points="299.5,-707.5 376.5,-707.5 "/>
<text text-anchor="middle" x="312" y="-692.3" font-family="Times New Roman,serif" font-size="14.00">2</text>
<polyline fill="none" stroke="blue" points="324.5,-684.5 324.5,-707.5 "/>
<text text-anchor="middle" x="337.5" y="-692.3" font-family="Times New Roman,serif" font-size="14.00">2</text>
<polyline fill="none" stroke="blue" points="350.5,-684.5 350.5,-707.5 "/>
<text text-anchor="middle" x="363.5" y="-692.3" font-family="Times New Roman,serif" font-size="14.00">4</text>
<polyline fill="none" stroke="blue" points="299.5,-684.5 376.5,-684.5 "/>
<text text-anchor="middle" x="338" y="-669.3" font-family="Times New Roman,serif" font-size="14.00">Reuben</text>
</g>
<!-- Mail DDL&#45;&gt;Mail DML -->
<g id="edge13" class="edge">
<title>Mail DDL&#45;&gt;Mail DML</title>
<path fill="none" stroke="black" d="M207.02,-627.09C231.41,-640.03 263.88,-657.24 290.27,-671.23"/>
<polygon fill="black" stroke="black" points="288.85,-674.43 299.32,-676.03 292.13,-668.25 288.85,-674.43"/>
</g>
<!-- MailBoxes DML -->
<g id="node14" class="node">
<title>MailBoxes DML</title>
<polygon fill="#ededed" stroke="blue" points="452,-624.5 452,-693.5 563,-693.5 563,-624.5 452,-624.5"/>
<text text-anchor="middle" x="507.5" y="-678.3" font-family="Times New Roman,serif" font-size="14.00">MailBoxes DML</text>
<polyline fill="none" stroke="blue" points="452,-670.5 563,-670.5 "/>
<text text-anchor="middle" x="470.5" y="-655.3" font-family="Times New Roman,serif" font-size="14.00">4</text>
<polyline fill="none" stroke="blue" points="489,-647.5 489,-670.5 "/>
<text text-anchor="middle" x="507.5" y="-655.3" font-family="Times New Roman,serif" font-size="14.00">1</text>
<polyline fill="none" stroke="blue" points="526,-647.5 526,-670.5 "/>
<text text-anchor="middle" x="544.5" y="-655.3" font-family="Times New Roman,serif" font-size="14.00">5</text>
<polyline fill="none" stroke="blue" points="452,-647.5 563,-647.5 "/>
<text text-anchor="middle" x="507.5" y="-632.3" font-family="Times New Roman,serif" font-size="14.00">Reuben</text>
</g>
<!-- MailBoxes DDL&#45;&gt;MailBoxes DML -->
<g id="edge15" class="edge">
<title>MailBoxes DDL&#45;&gt;MailBoxes DML</title>
<path fill="none" stroke="black" d="M392.46,-624.28C408.16,-629.06 425.5,-634.34 441.82,-639.31"/>
<polygon fill="black" stroke="black" points="441.24,-642.79 451.82,-642.35 443.28,-636.09 441.24,-642.79"/>
</g>
<!-- Post Office Branch DDL -->
<g id="node5" class="node">
<title>Post Office Branch DDL</title>
<polygon fill="#ededed" stroke="blue" points="94,-482.5 94,-551.5 246,-551.5 246,-482.5 94,-482.5"/>
<text text-anchor="middle" x="170" y="-536.3" font-family="Times New Roman,serif" font-size="14.00">Post Office Branch DDL</text>
<polyline fill="none" stroke="blue" points="94,-528.5 246,-528.5 "/>
<text text-anchor="middle" x="119" y="-513.3" font-family="Times New Roman,serif" font-size="14.00">0</text>
<polyline fill="none" stroke="blue" points="144,-505.5 144,-528.5 "/>
<text text-anchor="middle" x="169.5" y="-513.3" font-family="Times New Roman,serif" font-size="14.00">2</text>
<polyline fill="none" stroke="blue" points="195,-505.5 195,-528.5 "/>
<text text-anchor="middle" x="220.5" y="-513.3" font-family="Times New Roman,serif" font-size="14.00">2</text>
<polyline fill="none" stroke="blue" points="94,-505.5 246,-505.5 "/>
<text text-anchor="middle" x="170" y="-490.3" font-family="Times New Roman,serif" font-size="14.00">Reuben</text>
</g>
<!-- Post Office Branch DML -->
<g id="node15" class="node">
<title>Post Office Branch DML</title>
<polygon fill="#ededed" stroke="blue" points="430,-536.5 430,-605.5 585,-605.5 585,-536.5 430,-536.5"/>
<text text-anchor="middle" x="507.5" y="-590.3" font-family="Times New Roman,serif" font-size="14.00">Post Office Branch DML</text>
<polyline fill="none" stroke="blue" points="430,-582.5 585,-582.5 "/>
<text text-anchor="middle" x="455.5" y="-567.3" font-family="Times New Roman,serif" font-size="14.00">2</text>
<polyline fill="none" stroke="blue" points="481,-559.5 481,-582.5 "/>
<text text-anchor="middle" x="507" y="-567.3" font-family="Times New Roman,serif" font-size="14.00">2</text>
<polyline fill="none" stroke="blue" points="533,-559.5 533,-582.5 "/>
<text text-anchor="middle" x="559" y="-567.3" font-family="Times New Roman,serif" font-size="14.00">4</text>
<polyline fill="none" stroke="blue" points="430,-559.5 585,-559.5 "/>
<text text-anchor="middle" x="507.5" y="-544.3" font-family="Times New Roman,serif" font-size="14.00">Reuben</text>
</g>
<!-- Post Office Branch DDL&#45;&gt;Post Office Branch DML -->
<g id="edge16" class="edge">
<title>Post Office Branch DDL&#45;&gt;Post Office Branch DML</title>
<path fill="none" stroke="black" d="M246.29,-529.12C297.66,-537.39 365.84,-548.36 419.52,-557"/>
<polygon fill="black" stroke="black" points="419.29,-560.51 429.72,-558.64 420.4,-553.6 419.29,-560.51"/>
</g>
<!-- Address DDL -->
<g id="node6" class="node">
<title>Address DDL</title>
<polygon fill="#ededed" stroke="blue" points="124,-388.5 124,-457.5 216,-457.5 216,-388.5 124,-388.5"/>
<text text-anchor="middle" x="170" y="-442.3" font-family="Times New Roman,serif" font-size="14.00">Address DDL</text>
<polyline fill="none" stroke="blue" points="124,-434.5 216,-434.5 "/>
<text text-anchor="middle" x="139" y="-419.3" font-family="Times New Roman,serif" font-size="14.00">0</text>
<polyline fill="none" stroke="blue" points="154,-411.5 154,-434.5 "/>
<text text-anchor="middle" x="169.5" y="-419.3" font-family="Times New Roman,serif" font-size="14.00">2</text>
<polyline fill="none" stroke="blue" points="185,-411.5 185,-434.5 "/>
<text text-anchor="middle" x="200.5" y="-419.3" font-family="Times New Roman,serif" font-size="14.00">2</text>
<polyline fill="none" stroke="blue" points="124,-411.5 216,-411.5 "/>
<text text-anchor="middle" x="170" y="-396.3" font-family="Times New Roman,serif" font-size="14.00">Reuben</text>
</g>
<!-- Address DML -->
<g id="node16" class="node">
<title>Address DML</title>
<polygon fill="#ededed" stroke="blue" points="460,-448.5 460,-517.5 555,-517.5 555,-448.5 460,-448.5"/>
<text text-anchor="middle" x="507.5" y="-502.3" font-family="Times New Roman,serif" font-size="14.00">Address DML</text>
<polyline fill="none" stroke="blue" points="460,-494.5 555,-494.5 "/>
<text text-anchor="middle" x="475.5" y="-479.3" font-family="Times New Roman,serif" font-size="14.00">2</text>
<polyline fill="none" stroke="blue" points="491,-471.5 491,-494.5 "/>
<text text-anchor="middle" x="507" y="-479.3" font-family="Times New Roman,serif" font-size="14.00">2</text>
<polyline fill="none" stroke="blue" points="523,-471.5 523,-494.5 "/>
<text text-anchor="middle" x="539" y="-479.3" font-family="Times New Roman,serif" font-size="14.00">4</text>
<polyline fill="none" stroke="blue" points="460,-471.5 555,-471.5 "/>
<text text-anchor="middle" x="507.5" y="-456.3" font-family="Times New Roman,serif" font-size="14.00">Reuben</text>
</g>
<!-- Address DDL&#45;&gt;Address DML -->
<g id="edge17" class="edge">
<title>Address DDL&#45;&gt;Address DML</title>
<path fill="none" stroke="black" d="M216.07,-442.79C235.92,-450.68 259.74,-459.04 282,-464 338.26,-476.53 404.13,-480.93 449.92,-482.41"/>
<polygon fill="black" stroke="black" points="449.85,-485.91 459.95,-482.7 450.05,-478.91 449.85,-485.91"/>
</g>
<!-- Employees DDL -->
<g id="node7" class="node">
<title>Employees DDL</title>
<polygon fill="#ededed" stroke="blue" points="115.5,-299.5 115.5,-368.5 224.5,-368.5 224.5,-299.5 115.5,-299.5"/>
<text text-anchor="middle" x="170" y="-353.3" font-family="Times New Roman,serif" font-size="14.00">Employees DDL</text>
<polyline fill="none" stroke="blue" points="115.5,-345.5 224.5,-345.5 "/>
<text text-anchor="middle" x="133.5" y="-330.3" font-family="Times New Roman,serif" font-size="14.00">0</text>
<polyline fill="none" stroke="blue" points="151.5,-322.5 151.5,-345.5 "/>
<text text-anchor="middle" x="169.5" y="-330.3" font-family="Times New Roman,serif" font-size="14.00">2</text>
<polyline fill="none" stroke="blue" points="187.5,-322.5 187.5,-345.5 "/>
<text text-anchor="middle" x="206" y="-330.3" font-family="Times New Roman,serif" font-size="14.00">2</text>
<polyline fill="none" stroke="blue" points="115.5,-322.5 224.5,-322.5 "/>
<text text-anchor="middle" x="170" y="-307.3" font-family="Times New Roman,serif" font-size="14.00">Rhi Ann</text>
</g>
<!-- Manager DDL -->
<g id="node8" class="node">
<title>Manager DDL</title>
<polygon fill="#ededed" stroke="blue" points="289.5,-209.5 289.5,-278.5 386.5,-278.5 386.5,-209.5 289.5,-209.5"/>
<text text-anchor="middle" x="338" y="-263.3" font-family="Times New Roman,serif" font-size="14.00">Manager DDL</text>
<polyline fill="none" stroke="blue" points="289.5,-255.5 386.5,-255.5 "/>
<text text-anchor="middle" x="305.5" y="-240.3" font-family="Times New Roman,serif" font-size="14.00">2</text>
<polyline fill="none" stroke="blue" points="321.5,-232.5 321.5,-255.5 "/>
<text text-anchor="middle" x="337.5" y="-240.3" font-family="Times New Roman,serif" font-size="14.00">2</text>
<polyline fill="none" stroke="blue" points="353.5,-232.5 353.5,-255.5 "/>
<text text-anchor="middle" x="370" y="-240.3" font-family="Times New Roman,serif" font-size="14.00">4</text>
<polyline fill="none" stroke="blue" points="289.5,-232.5 386.5,-232.5 "/>
<text text-anchor="middle" x="338" y="-217.3" font-family="Times New Roman,serif" font-size="14.00">Rhi Ann</text>
</g>
<!-- Employees DDL&#45;&gt;Manager DDL -->
<g id="edge8" class="edge">
<title>Employees DDL&#45;&gt;Manager DDL</title>
<path fill="none" stroke="black" d="M224.9,-304.78C242.55,-295.21 262.22,-284.54 280.09,-274.86"/>
<polygon fill="black" stroke="black" points="282.13,-277.73 289.25,-269.89 278.79,-271.58 282.13,-277.73"/>
</g>
<!-- Driver DDL -->
<g id="node9" class="node">
<title>Driver DDL</title>
<polygon fill="#ededed" stroke="blue" points="296.5,-385.5 296.5,-454.5 379.5,-454.5 379.5,-385.5 296.5,-385.5"/>
<text text-anchor="middle" x="338" y="-439.3" font-family="Times New Roman,serif" font-size="14.00">Driver DDL</text>
<polyline fill="none" stroke="blue" points="296.5,-431.5 379.5,-431.5 "/>
<text text-anchor="middle" x="310" y="-416.3" font-family="Times New Roman,serif" font-size="14.00">2</text>
<polyline fill="none" stroke="blue" points="323.5,-408.5 323.5,-431.5 "/>
<text text-anchor="middle" x="337.5" y="-416.3" font-family="Times New Roman,serif" font-size="14.00">2</text>
<polyline fill="none" stroke="blue" points="351.5,-408.5 351.5,-431.5 "/>
<text text-anchor="middle" x="365.5" y="-416.3" font-family="Times New Roman,serif" font-size="14.00">4</text>
<polyline fill="none" stroke="blue" points="296.5,-408.5 379.5,-408.5 "/>
<text text-anchor="middle" x="338" y="-393.3" font-family="Times New Roman,serif" font-size="14.00">Rhi Ann</text>
</g>
<!-- Employees DDL&#45;&gt;Driver DDL -->
<g id="edge9" class="edge">
<title>Employees DDL&#45;&gt;Driver DDL</title>
<path fill="none" stroke="black" d="M224.9,-361.92C244.92,-372.3 267.53,-384.01 287.17,-394.19"/>
<polygon fill="black" stroke="black" points="285.77,-397.4 296.26,-398.89 288.99,-391.19 285.77,-397.4"/>
</g>
<!-- Employees DML -->
<g id="node17" class="node">
<title>Employees DML</title>
<polygon fill="#ededed" stroke="blue" points="282,-297.5 282,-366.5 394,-366.5 394,-297.5 282,-297.5"/>
<text text-anchor="middle" x="338" y="-351.3" font-family="Times New Roman,serif" font-size="14.00">Employees DML</text>
<polyline fill="none" stroke="blue" points="282,-343.5 394,-343.5 "/>
<text text-anchor="middle" x="300.5" y="-328.3" font-family="Times New Roman,serif" font-size="14.00">2</text>
<polyline fill="none" stroke="blue" points="319,-320.5 319,-343.5 "/>
<text text-anchor="middle" x="337.5" y="-328.3" font-family="Times New Roman,serif" font-size="14.00">2</text>
<polyline fill="none" stroke="blue" points="356,-320.5 356,-343.5 "/>
<text text-anchor="middle" x="375" y="-328.3" font-family="Times New Roman,serif" font-size="14.00">4</text>
<polyline fill="none" stroke="blue" points="282,-320.5 394,-320.5 "/>
<text text-anchor="middle" x="338" y="-305.3" font-family="Times New Roman,serif" font-size="14.00">Rhi Ann</text>
</g>
<!-- Employees DDL&#45;&gt;Employees DML -->
<g id="edge18" class="edge">
<title>Employees DDL&#45;&gt;Employees DML</title>
<path fill="none" stroke="black" d="M224.9,-333.35C239.88,-333.17 256.32,-332.97 271.88,-332.78"/>
<polygon fill="black" stroke="black" points="272,-336.28 281.95,-332.66 271.91,-329.28 272,-336.28"/>
</g>
<!-- Manager DML -->
<g id="node18" class="node">
<title>Manager DML</title>
<polygon fill="#ededed" stroke="blue" points="457.5,-234.5 457.5,-303.5 557.5,-303.5 557.5,-234.5 457.5,-234.5"/>
<text text-anchor="middle" x="507.5" y="-288.3" font-family="Times New Roman,serif" font-size="14.00">Manager DML</text>
<polyline fill="none" stroke="blue" points="457.5,-280.5 557.5,-280.5 "/>
<text text-anchor="middle" x="474" y="-265.3" font-family="Times New Roman,serif" font-size="14.00">4</text>
<polyline fill="none" stroke="blue" points="490.5,-257.5 490.5,-280.5 "/>
<text text-anchor="middle" x="507" y="-265.3" font-family="Times New Roman,serif" font-size="14.00">2</text>
<polyline fill="none" stroke="blue" points="523.5,-257.5 523.5,-280.5 "/>
<text text-anchor="middle" x="540.5" y="-265.3" font-family="Times New Roman,serif" font-size="14.00">6</text>
<polyline fill="none" stroke="blue" points="457.5,-257.5 557.5,-257.5 "/>
<text text-anchor="middle" x="507.5" y="-242.3" font-family="Times New Roman,serif" font-size="14.00">Rhi Ann</text>
</g>
<!-- Manager DDL&#45;&gt;Manager DML -->
<g id="edge19" class="edge">
<title>Manager DDL&#45;&gt;Manager DML</title>
<path fill="none" stroke="black" d="M386.55,-251.1C405.5,-253.93 427.51,-257.21 447.46,-260.19"/>
<polygon fill="black" stroke="black" points="446.97,-263.65 457.37,-261.67 448,-256.73 446.97,-263.65"/>
</g>
<!-- Driver DML -->
<g id="node19" class="node">
<title>Driver DML</title>
<polygon fill="#ededed" stroke="blue" points="464.5,-360.5 464.5,-429.5 550.5,-429.5 550.5,-360.5 464.5,-360.5"/>
<text text-anchor="middle" x="507.5" y="-414.3" font-family="Times New Roman,serif" font-size="14.00">Driver DML</text>
<polyline fill="none" stroke="blue" points="464.5,-406.5 550.5,-406.5 "/>
<text text-anchor="middle" x="478.5" y="-391.3" font-family="Times New Roman,serif" font-size="14.00">4</text>
<polyline fill="none" stroke="blue" points="492.5,-383.5 492.5,-406.5 "/>
<text text-anchor="middle" x="507" y="-391.3" font-family="Times New Roman,serif" font-size="14.00">2</text>
<polyline fill="none" stroke="blue" points="521.5,-383.5 521.5,-406.5 "/>
<text text-anchor="middle" x="536" y="-391.3" font-family="Times New Roman,serif" font-size="14.00">6</text>
<polyline fill="none" stroke="blue" points="464.5,-383.5 550.5,-383.5 "/>
<text text-anchor="middle" x="507.5" y="-368.3" font-family="Times New Roman,serif" font-size="14.00">Rhi Ann</text>
</g>
<!-- Driver DDL&#45;&gt;Driver DML -->
<g id="edge21" class="edge">
<title>Driver DDL&#45;&gt;Driver DML</title>
<path fill="none" stroke="black" d="M379.55,-413.95C402,-410.6 430.15,-406.4 454.24,-402.8"/>
<polygon fill="black" stroke="black" points="454.91,-406.24 464.28,-401.3 453.88,-399.32 454.91,-406.24"/>
</g>
<!-- Clients DDL -->
<g id="node10" class="node">
<title>Clients DDL</title>
<polygon fill="#ededed" stroke="blue" points="127,-209.5 127,-278.5 213,-278.5 213,-209.5 127,-209.5"/>
<text text-anchor="middle" x="170" y="-263.3" font-family="Times New Roman,serif" font-size="14.00">Clients DDL</text>
<polyline fill="none" stroke="blue" points="127,-255.5 213,-255.5 "/>
<text text-anchor="middle" x="141" y="-240.3" font-family="Times New Roman,serif" font-size="14.00">0</text>
<polyline fill="none" stroke="blue" points="155,-232.5 155,-255.5 "/>
<text text-anchor="middle" x="169.5" y="-240.3" font-family="Times New Roman,serif" font-size="14.00">2</text>
<polyline fill="none" stroke="blue" points="184,-232.5 184,-255.5 "/>
<text text-anchor="middle" x="198.5" y="-240.3" font-family="Times New Roman,serif" font-size="14.00">2</text>
<polyline fill="none" stroke="blue" points="127,-232.5 213,-232.5 "/>
<text text-anchor="middle" x="170" y="-217.3" font-family="Times New Roman,serif" font-size="14.00">Esther</text>
</g>
<!-- Clients DML -->
<g id="node20" class="node">
<title>Clients DML</title>
<polygon fill="#ededed" stroke="blue" points="463,-146.5 463,-215.5 552,-215.5 552,-146.5 463,-146.5"/>
<text text-anchor="middle" x="507.5" y="-200.3" font-family="Times New Roman,serif" font-size="14.00">Clients DML</text>
<polyline fill="none" stroke="blue" points="463,-192.5 552,-192.5 "/>
<text text-anchor="middle" x="477.5" y="-177.3" font-family="Times New Roman,serif" font-size="14.00">2</text>
<polyline fill="none" stroke="blue" points="492,-169.5 492,-192.5 "/>
<text text-anchor="middle" x="507" y="-177.3" font-family="Times New Roman,serif" font-size="14.00">2</text>
<polyline fill="none" stroke="blue" points="522,-169.5 522,-192.5 "/>
<text text-anchor="middle" x="537" y="-177.3" font-family="Times New Roman,serif" font-size="14.00">4</text>
<polyline fill="none" stroke="blue" points="463,-169.5 552,-169.5 "/>
<text text-anchor="middle" x="507.5" y="-154.3" font-family="Times New Roman,serif" font-size="14.00">Esther</text>
</g>
<!-- Clients DDL&#45;&gt;Clients DML -->
<g id="edge23" class="edge">
<title>Clients DDL&#45;&gt;Clients DML</title>
<path fill="none" stroke="black" d="M213.02,-223.97C233.39,-215.14 258.49,-205.53 282,-200 339.35,-186.52 406.92,-182.32 452.84,-181.15"/>
<polygon fill="black" stroke="black" points="452.95,-184.65 462.87,-180.94 452.8,-177.65 452.95,-184.65"/>
</g>
<!-- Payment DDL -->
<g id="node11" class="node">
<title>Payment DDL</title>
<polygon fill="#ededed" stroke="blue" points="122,-116.5 122,-185.5 218,-185.5 218,-116.5 122,-116.5"/>
<text text-anchor="middle" x="170" y="-170.3" font-family="Times New Roman,serif" font-size="14.00">Payment DDL</text>
<polyline fill="none" stroke="blue" points="122,-162.5 218,-162.5 "/>
<text text-anchor="middle" x="138" y="-147.3" font-family="Times New Roman,serif" font-size="14.00">0</text>
<polyline fill="none" stroke="blue" points="154,-139.5 154,-162.5 "/>
<text text-anchor="middle" x="170" y="-147.3" font-family="Times New Roman,serif" font-size="14.00">2</text>
<polyline fill="none" stroke="blue" points="186,-139.5 186,-162.5 "/>
<text text-anchor="middle" x="202" y="-147.3" font-family="Times New Roman,serif" font-size="14.00">2</text>
<polyline fill="none" stroke="blue" points="122,-139.5 218,-139.5 "/>
<text text-anchor="middle" x="170" y="-124.3" font-family="Times New Roman,serif" font-size="14.00">Esther</text>
</g>
<!-- Payment DML -->
<g id="node21" class="node">
<title>Payment DML</title>
<polygon fill="#ededed" stroke="blue" points="458,-58.5 458,-127.5 557,-127.5 557,-58.5 458,-58.5"/>
<text text-anchor="middle" x="507.5" y="-112.3" font-family="Times New Roman,serif" font-size="14.00">Payment DML</text>
<polyline fill="none" stroke="blue" points="458,-104.5 557,-104.5 "/>
<text text-anchor="middle" x="474.5" y="-89.3" font-family="Times New Roman,serif" font-size="14.00">2</text>
<polyline fill="none" stroke="blue" points="491,-81.5 491,-104.5 "/>
<text text-anchor="middle" x="507.5" y="-89.3" font-family="Times New Roman,serif" font-size="14.00">2</text>
<polyline fill="none" stroke="blue" points="524,-81.5 524,-104.5 "/>
<text text-anchor="middle" x="540.5" y="-89.3" font-family="Times New Roman,serif" font-size="14.00">4</text>
<polyline fill="none" stroke="blue" points="458,-81.5 557,-81.5 "/>
<text text-anchor="middle" x="507.5" y="-66.3" font-family="Times New Roman,serif" font-size="14.00">Esther</text>
</g>
<!-- Payment DDL&#45;&gt;Payment DML -->
<g id="edge24" class="edge">
<title>Payment DDL&#45;&gt;Payment DML</title>
<path fill="none" stroke="black" d="M218,-142.87C278.17,-132.47 382.44,-114.45 447.77,-103.15"/>
<polygon fill="black" stroke="black" points="448.65,-106.55 457.91,-101.4 447.46,-99.65 448.65,-106.55"/>
</g>
<!-- Truck DDL -->
<g id="node12" class="node">
<title>Truck DDL</title>
<polygon fill="#ededed" stroke="blue" points="130,-19.5 130,-88.5 210,-88.5 210,-19.5 130,-19.5"/>
<text text-anchor="middle" x="170" y="-73.3" font-family="Times New Roman,serif" font-size="14.00">Truck DDL</text>
<polyline fill="none" stroke="blue" points="130,-65.5 210,-65.5 "/>
<text text-anchor="middle" x="143" y="-50.3" font-family="Times New Roman,serif" font-size="14.00">0</text>
<polyline fill="none" stroke="blue" points="156,-42.5 156,-65.5 "/>
<text text-anchor="middle" x="169.5" y="-50.3" font-family="Times New Roman,serif" font-size="14.00">2</text>
<polyline fill="none" stroke="blue" points="183,-42.5 183,-65.5 "/>
<text text-anchor="middle" x="196.5" y="-50.3" font-family="Times New Roman,serif" font-size="14.00">2</text>
<polyline fill="none" stroke="blue" points="130,-42.5 210,-42.5 "/>
<text text-anchor="middle" x="170" y="-27.3" font-family="Times New Roman,serif" font-size="14.00">Esther</text>
</g>
<!-- Truck DML -->
<g id="node22" class="node">
<title>Truck DML</title>
<polygon fill="#ededed" stroke="blue" points="296.5,-0.5 296.5,-69.5 379.5,-69.5 379.5,-0.5 296.5,-0.5"/>
<text text-anchor="middle" x="338" y="-54.3" font-family="Times New Roman,serif" font-size="14.00">Truck DML</text>
<polyline fill="none" stroke="blue" points="296.5,-46.5 379.5,-46.5 "/>
<text text-anchor="middle" x="310" y="-31.3" font-family="Times New Roman,serif" font-size="14.00">2</text>
<polyline fill="none" stroke="blue" points="323.5,-23.5 323.5,-46.5 "/>
<text text-anchor="middle" x="337.5" y="-31.3" font-family="Times New Roman,serif" font-size="14.00">2</text>
<polyline fill="none" stroke="blue" points="351.5,-23.5 351.5,-46.5 "/>
<text text-anchor="middle" x="365.5" y="-31.3" font-family="Times New Roman,serif" font-size="14.00">4</text>
<polyline fill="none" stroke="blue" points="296.5,-23.5 379.5,-23.5 "/>
<text text-anchor="middle" x="338" y="-8.3" font-family="Times New Roman,serif" font-size="14.00">Esther</text>
</g>
<!-- Truck DDL&#45;&gt;Truck DML -->
<g id="edge25" class="edge">
<title>Truck DDL&#45;&gt;Truck DML</title>
<path fill="none" stroke="black" d="M210.34,-49.5C233.07,-46.9 261.92,-43.59 286.34,-40.8"/>
<polygon fill="black" stroke="black" points="286.96,-44.25 296.5,-39.64 286.17,-37.3 286.96,-44.25"/>
</g>
<!-- Mail DML&#45;&gt;MailBoxes DML -->
<g id="edge14" class="edge">
<title>Mail DML&#45;&gt;MailBoxes DML</title>
<path fill="none" stroke="black" d="M376.59,-687.7C395.83,-683.45 419.79,-678.15 441.88,-673.27"/>
<polygon fill="black" stroke="black" points="442.86,-676.64 451.87,-671.07 441.35,-669.81 442.86,-676.64"/>
</g>
<!-- Brainstorm Queries -->
<g id="node23" class="node">
<title>Brainstorm Queries</title>
<polygon fill="#ededed" stroke="blue" points="621,-360.5 621,-429.5 745,-429.5 745,-360.5 621,-360.5"/>
<text text-anchor="middle" x="683" y="-414.3" font-family="Times New Roman,serif" font-size="14.00">Brainstorm Queries</text>
<polyline fill="none" stroke="blue" points="621,-406.5 745,-406.5 "/>
<text text-anchor="middle" x="641.5" y="-391.3" font-family="Times New Roman,serif" font-size="14.00">6</text>
<polyline fill="none" stroke="blue" points="662,-383.5 662,-406.5 "/>
<text text-anchor="middle" x="682.5" y="-391.3" font-family="Times New Roman,serif" font-size="14.00">1</text>
<polyline fill="none" stroke="blue" points="703,-383.5 703,-406.5 "/>
<text text-anchor="middle" x="724" y="-391.3" font-family="Times New Roman,serif" font-size="14.00">7</text>
<polyline fill="none" stroke="blue" points="621,-383.5 745,-383.5 "/>
<text text-anchor="middle" x="683" y="-368.3" font-family="Times New Roman,serif" font-size="14.00">All</text>
</g>
<!-- Mail DML&#45;&gt;Brainstorm Queries -->
<g id="edge26" class="edge">
<title>Mail DML&#45;&gt;Brainstorm Queries</title>
<path fill="none" stroke="black" d="M376.69,-710.31C429.07,-727.52 524.28,-748.8 585,-703 631.5,-667.93 603.74,-632.63 621,-577 635.62,-529.87 653.74,-476.37 666.41,-439.64"/>
<polygon fill="black" stroke="black" points="669.88,-440.33 669.84,-429.74 663.26,-438.05 669.88,-440.33"/>
</g>
<!-- MailBoxes DML&#45;&gt;Brainstorm Queries -->
<g id="edge27" class="edge">
<title>MailBoxes DML&#45;&gt;Brainstorm Queries</title>
<path fill="none" stroke="black" d="M563.17,-633.4C571.14,-628.09 578.75,-621.95 585,-615 630.97,-563.84 657.95,-487.39 671.34,-439.41"/>
<polygon fill="black" stroke="black" points="674.76,-440.19 673.99,-429.62 668,-438.35 674.76,-440.19"/>
</g>
<!-- Post Office Branch DML&#45;&gt;Brainstorm Queries -->
<g id="edge28" class="edge">
<title>Post Office Branch DML&#45;&gt;Brainstorm Queries</title>
<path fill="none" stroke="black" d="M573.32,-536.4C577.41,-533.41 581.34,-530.27 585,-527 613.7,-501.34 639.16,-465.92 656.79,-438.23"/>
<polygon fill="black" stroke="black" points="659.9,-439.86 662.24,-429.53 653.97,-436.15 659.9,-439.86"/>
</g>
<!-- Address DML&#45;&gt;Brainstorm Queries -->
<g id="edge29" class="edge">
<title>Address DML&#45;&gt;Brainstorm Queries</title>
<path fill="none" stroke="black" d="M555.45,-459.19C572.87,-450.35 593.01,-440.14 612.04,-430.49"/>
<polygon fill="black" stroke="black" points="613.64,-433.6 620.98,-425.95 610.47,-427.35 613.64,-433.6"/>
</g>
<!-- Employees DML&#45;&gt;Manager DML -->
<g id="edge20" class="edge">
<title>Employees DML&#45;&gt;Manager DML</title>
<path fill="none" stroke="black" d="M394.31,-311.2C411.52,-304.73 430.54,-297.57 447.96,-291.02"/>
<polygon fill="black" stroke="black" points="449.32,-294.25 457.45,-287.45 446.86,-287.69 449.32,-294.25"/>
</g>
<!-- Employees DML&#45;&gt;Driver DML -->
<g id="edge22" class="edge">
<title>Employees DML&#45;&gt;Driver DML</title>
<path fill="none" stroke="black" d="M394.31,-352.8C413.79,-360.13 435.61,-368.34 454.78,-375.55"/>
<polygon fill="black" stroke="black" points="453.66,-378.86 464.25,-379.11 456.12,-372.31 453.66,-378.86"/>
</g>
<!-- Employees DML&#45;&gt;Brainstorm Queries -->
<g id="edge30" class="edge">
<title>Employees DML&#45;&gt;Brainstorm Queries</title>
<path fill="none" stroke="black" d="M394.12,-330.83C444.57,-331.02 520.9,-334.53 585,-351 593.75,-353.25 602.69,-356.24 611.43,-359.61"/>
<polygon fill="black" stroke="black" points="610.23,-362.9 620.81,-363.39 612.85,-356.41 610.23,-362.9"/>
</g>
<!-- Manager DML&#45;&gt;Brainstorm Queries -->
<g id="edge31" class="edge">
<title>Manager DML&#45;&gt;Brainstorm Queries</title>
<path fill="none" stroke="black" d="M557.56,-299.38C566.78,-305.39 576.27,-311.77 585,-318 600.65,-329.18 617.2,-341.94 632.12,-353.82"/>
<polygon fill="black" stroke="black" points="630.23,-356.8 640.22,-360.32 634.61,-351.33 630.23,-356.8"/>
</g>
<!-- Driver DML&#45;&gt;Brainstorm Queries -->
<g id="edge32" class="edge">
<title>Driver DML&#45;&gt;Brainstorm Queries</title>
<path fill="none" stroke="black" d="M550.94,-395C568.97,-395 590.48,-395 610.81,-395"/>
<polygon fill="black" stroke="black" points="610.99,-398.5 620.99,-395 610.99,-391.5 610.99,-398.5"/>
</g>
<!-- Clients DML&#45;&gt;Brainstorm Queries -->
<g id="edge33" class="edge">
<title>Clients DML&#45;&gt;Brainstorm Queries</title>
<path fill="none" stroke="black" d="M552.2,-200.86C563.74,-207.45 575.59,-215.56 585,-225 621.11,-261.24 648.3,-313.64 664.56,-350.67"/>
<polygon fill="black" stroke="black" points="661.5,-352.4 668.66,-360.21 667.93,-349.64 661.5,-352.4"/>
</g>
<!-- Payment DML&#45;&gt;Brainstorm Queries -->
<g id="edge34" class="edge">
<title>Payment DML&#45;&gt;Brainstorm Queries</title>
<path fill="none" stroke="black" d="M557.2,-114.27C567.4,-120.45 577.36,-128.01 585,-137 638.38,-199.83 663.84,-294.94 674.79,-350.42"/>
<polygon fill="black" stroke="black" points="671.36,-351.14 676.67,-360.31 678.24,-349.83 671.36,-351.14"/>
</g>
<!-- Truck DML&#45;&gt;Brainstorm Queries -->
<g id="edge35" class="edge">
<title>Truck DML&#45;&gt;Brainstorm Queries</title>
<path fill="none" stroke="black" d="M379.78,-24.23C433.12,-12.78 526.66,-2.09 585,-49 632.08,-86.85 663.44,-265.46 675.92,-350.19"/>
<polygon fill="black" stroke="black" points="672.49,-350.89 677.39,-360.28 679.42,-349.89 672.49,-350.89"/>
</g>
<!-- Implement Queries -->
<g id="node24" class="node">
<title>Implement Queries</title>
<polygon fill="#ededed" stroke="blue" points="781,-372.5 781,-441.5 903,-441.5 903,-372.5 781,-372.5"/>
<text text-anchor="middle" x="842" y="-426.3" font-family="Times New Roman,serif" font-size="14.00">Implement Queries</text>
<polyline fill="none" stroke="blue" points="781,-418.5 903,-418.5 "/>
<text text-anchor="middle" x="800" y="-403.3" font-family="Times New Roman,serif" font-size="14.00">7</text>
<polyline fill="none" stroke="blue" points="819,-395.5 819,-418.5 "/>
<text text-anchor="middle" x="838" y="-403.3" font-family="Times New Roman,serif" font-size="14.00">7</text>
<polyline fill="none" stroke="blue" points="857,-395.5 857,-418.5 "/>
<text text-anchor="middle" x="880" y="-403.3" font-family="Times New Roman,serif" font-size="14.00">14</text>
<polyline fill="none" stroke="blue" points="781,-395.5 903,-395.5 "/>
<text text-anchor="middle" x="842" y="-380.3" font-family="Times New Roman,serif" font-size="14.00">TBD</text>
</g>
<!-- Brainstorm Queries&#45;&gt;Implement Queries -->
<g id="edge36" class="edge">
<title>Brainstorm Queries&#45;&gt;Implement Queries</title>
<path fill="none" stroke="black" d="M745.15,-399.67C753.47,-400.31 762.07,-400.97 770.55,-401.61"/>
<polygon fill="black" stroke="black" points="770.55,-405.13 780.79,-402.4 771.09,-398.15 770.55,-405.13"/>
</g>
<!-- Implement Queries&#45;&gt;Integrate GUI/SQL -->
<g id="edge37" class="edge">
<title>Implement Queries&#45;&gt;Integrate GUI/SQL</title>
<path fill="none" stroke="black" d="M903.31,-418.99C911.69,-420.65 920.36,-422.37 928.9,-424.07"/>
<polygon fill="black" stroke="black" points="928.36,-427.53 938.85,-426.05 929.72,-420.66 928.36,-427.53"/>
</g>
<!-- Optimize/Bug Fix -->
<g id="node26" class="node">
<title>Optimize/Bug Fix</title>
<polygon fill="#ededed" stroke="blue" points="1097,-403.5 1097,-472.5 1213,-472.5 1213,-403.5 1097,-403.5"/>
<text text-anchor="middle" x="1155" y="-457.3" font-family="Times New Roman,serif" font-size="14.00">Optimize/Bug Fix</text>
<polyline fill="none" stroke="blue" points="1097,-449.5 1213,-449.5 "/>
<text text-anchor="middle" x="1117.5" y="-434.3" font-family="Times New Roman,serif" font-size="14.00">21</text>
<polyline fill="none" stroke="blue" points="1138,-426.5 1138,-449.5 "/>
<text text-anchor="middle" x="1155" y="-434.3" font-family="Times New Roman,serif" font-size="14.00">4</text>
<polyline fill="none" stroke="blue" points="1172,-426.5 1172,-449.5 "/>
<text text-anchor="middle" x="1192.5" y="-434.3" font-family="Times New Roman,serif" font-size="14.00">25</text>
<polyline fill="none" stroke="blue" points="1097,-426.5 1213,-426.5 "/>
<text text-anchor="middle" x="1155" y="-411.3" font-family="Times New Roman,serif" font-size="14.00">All</text>
</g>
<!-- Integrate GUI/SQL&#45;&gt;Optimize/Bug Fix -->
<g id="edge39" class="edge">
<title>Integrate GUI/SQL&#45;&gt;Optimize/Bug Fix</title>
<path fill="none" stroke="black" d="M1061.03,-438C1069.36,-438 1077.97,-438 1086.43,-438"/>
<polygon fill="black" stroke="black" points="1086.64,-441.5 1096.64,-438 1086.64,-434.5 1086.64,-441.5"/>
</g>
<!-- FINISH -->
<g id="node28" class="node">
<title>FINISH</title>
<polygon fill="none" stroke="black" points="1249,-426.5 1249,-449.5 1309,-449.5 1309,-426.5 1249,-426.5"/>
<text text-anchor="middle" x="1279" y="-434.3" font-family="Times New Roman,serif" font-size="14.00">FINISH</text>
</g>
<!-- Optimize/Bug Fix&#45;&gt;FINISH -->
<g id="edge40" class="edge">
<title>Optimize/Bug Fix&#45;&gt;FINISH</title>
<path fill="none" stroke="black" d="M1213.07,-438C1221.79,-438 1230.62,-438 1238.84,-438"/>
<polygon fill="black" stroke="black" points="1238.87,-441.5 1248.87,-438 1238.87,-434.5 1238.87,-441.5"/>
</g>
<!-- START -->
<g id="node27" class="node">
<title>START</title>
<polygon fill="none" stroke="black" points="0,-372.5 0,-395.5 58,-395.5 58,-372.5 0,-372.5"/>
<text text-anchor="middle" x="29" y="-380.3" font-family="Times New Roman,serif" font-size="14.00">START</text>
</g>
<!-- START&#45;&gt;Plan GUI -->
<g id="edge1" class="edge">
<title>START&#45;&gt;Plan GUI</title>
<path fill="none" stroke="black" d="M30.54,-395.51C32.78,-434.22 43.8,-562.24 94,-652 102.56,-667.31 115.13,-681.6 127.54,-693.52"/>
<polygon fill="black" stroke="black" points="125.5,-696.4 135.21,-700.63 130.25,-691.26 125.5,-696.4"/>
</g>
<!-- START&#45;&gt;Mail DDL -->
<g id="edge3" class="edge">
<title>START&#45;&gt;Mail DDL</title>
<path fill="none" stroke="black" d="M31.53,-395.62C36.05,-425.93 51.73,-508.62 94,-561 102.15,-571.1 113.08,-579.65 124.07,-586.57"/>
<polygon fill="black" stroke="black" points="122.46,-589.68 132.85,-591.77 126.03,-583.66 122.46,-589.68"/>
</g>
<!-- START&#45;&gt;Post Office Branch DDL -->
<g id="edge5" class="edge">
<title>START&#45;&gt;Post Office Branch DDL</title>
<path fill="none" stroke="black" d="M37.24,-395.69C48.14,-412.7 70.06,-444.65 94,-467 97.31,-470.09 100.82,-473.11 104.46,-476.06"/>
<polygon fill="black" stroke="black" points="102.53,-478.99 112.58,-482.35 106.82,-473.46 102.53,-478.99"/>
</g>
<!-- START&#45;&gt;Address DDL -->
<g id="edge6" class="edge">
<title>START&#45;&gt;Address DDL</title>
<path fill="none" stroke="black" d="M58.13,-391.89C74.21,-396.4 94.93,-402.22 114.1,-407.6"/>
<polygon fill="black" stroke="black" points="113.37,-411.03 123.95,-410.36 115.27,-404.29 113.37,-411.03"/>
</g>
<!-- START&#45;&gt;Employees DDL -->
<g id="edge7" class="edge">
<title>START&#45;&gt;Employees DDL</title>
<path fill="none" stroke="black" d="M58.13,-373.88C71.86,-368.94 88.97,-362.79 105.61,-356.8"/>
<polygon fill="black" stroke="black" points="107.1,-359.99 115.32,-353.31 104.73,-353.4 107.1,-359.99"/>
</g>
<!-- START&#45;&gt;Clients DDL -->
<g id="edge10" class="edge">
<title>START&#45;&gt;Clients DDL</title>
<path fill="none" stroke="black" d="M35.78,-372.44C45.68,-353.48 67.42,-315.34 94,-290 101.21,-283.12 109.62,-276.76 118.15,-271.1"/>
<polygon fill="black" stroke="black" points="120.11,-274 126.67,-265.68 116.36,-268.09 120.11,-274"/>
</g>
<!-- START&#45;&gt;Payment DDL -->
<g id="edge11" class="edge">
<title>START&#45;&gt;Payment DDL</title>
<path fill="none" stroke="black" d="M31.4,-372.42C35.65,-341.42 50.89,-255.16 94,-200 99.44,-193.04 106.15,-186.76 113.31,-181.2"/>
<polygon fill="black" stroke="black" points="115.82,-183.7 121.87,-175 111.72,-178.03 115.82,-183.7"/>
</g>
<!-- START&#45;&gt;Truck DDL -->
<g id="edge12" class="edge">
<title>START&#45;&gt;Truck DDL</title>
<path fill="none" stroke="black" d="M29.85,-372.31C29.86,-331.86 34.57,-195.51 94,-107 101.08,-96.45 111.03,-87.33 121.36,-79.78"/>
<polygon fill="black" stroke="black" points="123.42,-82.61 129.68,-74.06 119.46,-76.84 123.42,-82.61"/>
</g>
</g>
</svg>
